<?xml version="1.0" encoding="utf-8"?>
<!-- Generator: Adobe Illustrator 15.0.0, SVG Export Plug-In . SVG Version: 6.00 Build 0)  -->
<!DOCTYPE svg PUBLIC "-//W3C//DTD SVG 1.1//EN" "http://www.w3.org/Graphics/SVG/1.1/DTD/svg11.dtd">
<svg version="1.1" id="Calque_1" xmlns="http://www.w3.org/2000/svg" xmlns:xlink="http://www.w3.org/1999/xlink" x="0px" y="0px"
	 width="15.111px" height="18.632px" viewBox="0 0 15.111 18.632" enable-background="new 0 0 15.111 18.632" xml:space="preserve">
<g>
	<path fill="#FFFFFF" d="M15.109,13.122c0-0.009,0-0.017-0.002-0.024c0-0.009-0.002-0.015-0.004-0.023
		c-0.004-0.029-0.01-0.057-0.02-0.084c0-0.004-0.002-0.01-0.006-0.016c-0.008-0.027-0.018-0.055-0.029-0.078
		s-0.025-0.048-0.041-0.07c-0.012-0.017-0.021-0.031-0.033-0.045c-0.014-0.017-0.027-0.033-0.043-0.05l-1.898-1.896V7.181
		c0-2.859-2.168-5.22-4.945-5.528V0.617C8.088,0.275,7.811,0,7.471,0S6.855,0.275,6.855,0.617v1.035
		C4.074,1.96,1.908,4.322,1.908,7.18v3.826l-1.727,1.726c-0.049,0.049-0.09,0.106-0.119,0.167c-0.006,0.012-0.012,0.023-0.018,0.037
		c-0.014,0.036-0.025,0.076-0.035,0.115C0.004,13.089,0,13.129,0,13.167v2.521c0,0.34,0.275,0.615,0.617,0.615H4.59
		c0.283,1.33,1.467,2.329,2.881,2.329c1.412,0,2.596-0.999,2.879-2.329h4.146c0.34,0,0.615-0.275,0.615-0.616v-2.52
		C15.111,13.152,15.111,13.137,15.109,13.122z M7.471,17.398c-0.729,0-1.35-0.456-1.596-1.096h3.193
		C8.818,16.942,8.197,17.398,7.471,17.398z M13.879,15.07H1.234v-1.648l1.725-1.725c0.02-0.018,0.037-0.037,0.051-0.058
		c0.016-0.021,0.031-0.04,0.043-0.062c0.012-0.02,0.025-0.043,0.033-0.065c0.004-0.011,0.01-0.022,0.014-0.035
		c0.006-0.011,0.01-0.022,0.012-0.033c0.006-0.019,0.014-0.038,0.018-0.06c0.008-0.039,0.012-0.082,0.012-0.125V7.181
		c0-2.386,1.943-4.33,4.33-4.33s4.33,1.944,4.33,4.33v3.909c0,0.016,0,0.033,0.004,0.051c0,0.022,0.004,0.045,0.008,0.066
		c0.002,0.02,0.008,0.039,0.014,0.058c0.002,0.013,0.006,0.024,0.012,0.036c0.004,0.014,0.012,0.025,0.016,0.037
		c0.023,0.059,0.059,0.113,0.105,0.163c0.006,0.008,0.014,0.017,0.023,0.024l1.896,1.896V15.07z"/>
	<path fill="#FFFFFF" d="M11.982,11.525H11.98c-0.01-0.009-0.016-0.017-0.021-0.025C11.965,11.509,11.973,11.517,11.982,11.525z"/>
</g>
</svg>
