<?xml version="1.0" encoding="utf-8"?>
<!-- Generator: Adobe Illustrator 15.0.0, SVG Export Plug-In . SVG Version: 6.00 Build 0)  -->
<!DOCTYPE svg PUBLIC "-//W3C//DTD SVG 1.1//EN" "http://www.w3.org/Graphics/SVG/1.1/DTD/svg11.dtd">
<svg version="1.1" id="Calque_1" xmlns="http://www.w3.org/2000/svg" xmlns:xlink="http://www.w3.org/1999/xlink" x="0px" y="0px"
	 width="22.064px" height="27.797px" viewBox="0 0 22.064 27.797" enable-background="new 0 0 22.064 27.797" xml:space="preserve">
<path fill="#152661" d="M19.846,9.275c-0.441,0.302-1.071,0.316-1.852,0.076c0.043-0.152,0.09-0.305,0.121-0.456
	c0.317-1.589,0.436-3.452,0.471-4.951c0.492-0.098,1.35-0.162,1.867,0.225c0.348,0.26,0.517,0.705,0.517,1.36
	C20.97,7.479,20.582,8.773,19.846,9.275 M11.877,15.373c-0.453,0.341-0.719,1.018-0.621,1.574c0,0,0.148,0.852,0.312,1.662
	c0.366,1.832,0.899,3.391,0.923,3.456c0.194,0.563,0.791,0.988,1.389,0.988h3.398l0.108,0.11v3.429c0,0.06-0.05,0.109-0.108,0.109
	H4.655c-0.057,0-0.108-0.051-0.108-0.109v-3.429c0-0.058,0.052-0.11,0.108-0.11h3.399c0.594,0,1.191-0.424,1.39-0.988
	c0.022-0.065,0.558-1.624,0.923-3.455c0.162-0.812,0.312-1.663,0.313-1.664c0.095-0.559-0.172-1.234-0.621-1.572
	c-0.045-0.034-4.518-3.449-5.167-6.694c-0.614-3.07-0.438-7.408-0.438-7.451C4.457,1.16,4.524,1.095,4.592,1.095h12.75
	c0.068,0,0.135,0.065,0.137,0.134c0.002,0.043,0.18,4.378-0.438,7.451C16.392,11.925,11.922,15.339,11.877,15.373 M2.22,9.275
	C1.483,8.773,1.096,7.479,1.096,5.529c0-0.655,0.169-1.101,0.516-1.36c0.473-0.354,1.232-0.33,1.734-0.25
	c0.035,1.503,0.152,3.379,0.472,4.977c0.033,0.165,0.082,0.329,0.132,0.493C3.225,9.59,2.638,9.562,2.22,9.275 M21.105,3.289
	c-0.795-0.592-1.857-0.552-2.505-0.456c0.001-0.942-0.024-1.585-0.028-1.653C18.543,0.529,17.992,0,17.342,0H4.592
	C3.942,0,3.39,0.529,3.359,1.181C3.356,1.248,3.332,1.882,3.332,2.814C2.679,2.733,1.699,2.739,0.959,3.289
	C0.324,3.763,0,4.517,0,5.529c0,2.36,0.539,3.925,1.602,4.65c0.434,0.297,0.939,0.444,1.511,0.444c0.375,0,0.79-0.087,1.224-0.215
	c1.43,3.063,4.893,5.71,5.063,5.839c0.125,0.094,0.229,0.357,0.202,0.511c-0.001,0.002-0.147,0.839-0.308,1.637
	c-0.351,1.756-0.879,3.297-0.883,3.31c-0.045,0.124-0.226,0.254-0.355,0.254H4.655c-0.663,0-1.204,0.541-1.204,1.205v3.429
	c0,0.664,0.541,1.204,1.204,1.204h12.622c0.663,0,1.203-0.54,1.203-1.204v-3.427c0.001-0.322-0.124-0.624-0.352-0.853
	s-0.529-0.354-0.852-0.354h-3.398c-0.127,0-0.312-0.131-0.354-0.251c-0.005-0.016-0.533-1.557-0.884-3.313
	c-0.161-0.797-0.306-1.634-0.308-1.636c-0.026-0.153,0.078-0.418,0.203-0.512c0.17-0.129,3.658-2.795,5.077-5.873
	c0.476,0.151,0.929,0.25,1.339,0.25c0.571,0,1.076-0.147,1.51-0.444c1.063-0.726,1.602-2.29,1.602-4.65
	C22.064,4.517,21.742,3.763,21.105,3.289"/>
</svg>
