<?xml version="1.0" encoding="utf-8"?>
<!-- Generator: Adobe Illustrator 15.0.0, SVG Export Plug-In . SVG Version: 6.00 Build 0)  -->
<!DOCTYPE svg PUBLIC "-//W3C//DTD SVG 1.1//EN" "http://www.w3.org/Graphics/SVG/1.1/DTD/svg11.dtd">
<svg version="1.1" id="Calque_1" xmlns="http://www.w3.org/2000/svg" xmlns:xlink="http://www.w3.org/1999/xlink" x="0px" y="0px"
	 width="112.099px" height="59.704px" viewBox="0 0 112.099 59.704" enable-background="new 0 0 112.099 59.704"
	 xml:space="preserve">
<g>
	<path d="M25.001,34.952c0.45-2.45,0.8-5.2,1.15-8.25C28.602,4.25,33.152,0,39.302,0c4.851,0,7.301,4.4,7.301,10.251
		c0,8.9-5.65,21.051-17.051,25.901c-1.05,4.9-2.45,8.65-4.05,11.551c4.9,2.2,8.951,4.9,14.151,4.9c3.35,0,5.25-2.75,5.75-4.95
		l4.05,1.05c-1.3,4.601-4.75,7.65-9.701,7.65c-5.9,0-10.701-3.5-15.901-6.101c-3.5,4.65-7.701,6.101-11.801,6.101
		c-4.5,0-6.8-2.65-6.8-5.45c0-2.95,2.6-6,7.9-6c3.3,0,6.15,0.55,8.65,1.399c1-2.25,1.85-5.05,2.6-8.55
		c-1.75,0.35-3.65,0.55-5.65,0.55C5.5,38.303,0,31.252,0,24.302c0-6.75,5.2-13.451,13.451-13.451c2.35,0,3.95,0.45,5.8,1.5
		l-1.95,4.001c-1.15-0.7-2.4-1.051-3.9-1.051c-5.851,0-9.4,4.65-9.4,9.501c0,5.351,4.35,11.001,14.75,11.001
		C21.001,35.803,23.102,35.502,25.001,34.952z M20.551,48.753c-2.15-0.85-4.45-1.399-6.95-1.399c-3.101,0-4.701,1.899-4.701,3.649
		c0,1.5,1.25,2.95,3.8,2.95C15.651,53.953,18.301,52.503,20.551,48.753z M31.052,26.702c-0.2,2.05-0.5,3.95-0.8,5.75
		c8.4-5.45,12.101-16.401,12.101-23.451c0-3.801-1.1-6.501-3.1-6.501C36.502,2.5,33.352,5.2,31.052,26.702z"/>
	<path d="M59.701,33.252c-1.15,3-3.4,5.101-5.8,5.95c-1.7,3.65-4.25,5.801-7.451,5.801c-3.45,0-4.95-3.601-4.95-8.15
		c0-2.8,0.55-5.95,1.55-8.9l1.8,0.45c0.55-3.851,2.65-7.201,6.2-7.201c3.351,0,5.101,3.851,5.101,8.351c0,2.45-0.6,5.001-1.25,7.201
		c1.3-0.601,2.5-1.851,3.399-4.201C58.601,32.552,59.701,32.952,59.701,33.252z M49.351,39.253c-2.101-0.801-3.451-2.801-4.15-5.2
		c-0.1,0.75-0.15,1.5-0.15,2.149c0,2.95,0.8,5.001,2.05,5.001c0.15,0,0.25,0,0.4-0.051C48.15,40.953,48.75,40.253,49.351,39.253z
		 M47.35,31.202c0,2.7,0.8,5.301,3.05,5.95c1.1-2.65,1.85-6.15,1.85-8.801c0-2.25-0.55-3.95-1.95-3.95c-0.1,0-0.25,0.051-0.35,0.051
		C48.5,24.752,47.35,28.002,47.35,31.202z"/>
	<path d="M76.451,33.202c0,0.05,0,0.05,0,0.05c-1.9,4.9-4.65,8.451-7.351,11.251L68,50.953c-0.85,5.051-2.75,8.751-5.95,8.751
		c-2.25,0-3.851-1.301-3.851-3.95c0-3.45,3.201-6.301,6.9-9.851c0.301-1.5,0.5-3.101,0.801-4.65c-1.25,2.25-2.9,3.75-4.95,3.75
		c-2.45,0-3.45-2.7-3.45-6.351c0-7.05,3.85-17.451,8.6-17.451c1.551,0,2.4,0.9,2.751,2.65l0.45-2.15h4.1
		c-0.6,2.2-2.25,11.501-3.699,19.451c2.1-2.399,4.05-5.2,5.35-8.601C75.5,32.552,76.451,32.902,76.451,33.202z M62,57.054
		c0.85,0,1.25-1,1.551-2.55l1-5.351C62.45,51.354,61,53.304,61,55.704C61,56.653,61.5,57.054,62,57.054z M61.7,38.152
		c0,1.55,0.3,2.601,1.05,2.601c2.301,0,5.15-8.15,5.15-12.801c0-1.851-0.45-3.15-1.551-3.15C64.25,24.802,61.7,33.603,61.7,38.152z"
		/>
	<path d="M90.699,21.701c-1.75,7.801-3.199,13.602-3.199,17.701c0,1.45,0.549,1.7,1,1.7c1.299,0,2.949-2.8,5.15-8.551
		c0.25,0,1.399,0.351,1.399,0.65v0.05c-2.2,5.7-3.95,11.501-8.05,11.501c-2.701,0-3.602-2.5-3.602-5.95
		c0-5.551,2.201-13.501,3.051-17.102H90.699z M87.048,16.251c0-1.8,1.301-3.95,3.5-3.95c1.65,0,2.351,1.2,2.351,2.601
		c0,1.8-1.3,3.9-3.5,3.9C87.798,18.802,87.048,17.602,87.048,16.251z"/>
	<path d="M91.148,44.503c0,0,0.45-4.55,1.851-8.301c1-5.65,1.851-10.7,2.45-14.501h4.301l-0.551,3.351c1.6-2.4,3.6-3.9,5.7-3.9
		c1.751,0,2.9,1.15,2.9,3.551c0,4.649-3.25,10.601-3.25,14.7c0,1.45,0.55,1.7,1,1.7c1.3,0,2.95-2.8,5.15-8.551
		c0.3,0,1.399,0.4,1.399,0.7c-2.199,5.7-4.449,11.501-8.551,11.501c-1.75,0-3.399-1.4-3.399-4.45c0-5.4,3.25-10.951,3.25-14.551
		c0-0.55-0.25-1-0.8-1c-1.25,0-3.45,2.35-5.101,9.4l-2,10.351H91.148z"/>
</g>
</svg>
