<?xml version="1.0" encoding="utf-8"?>
<!-- Generator: Adobe Illustrator 15.0.0, SVG Export Plug-In . SVG Version: 6.00 Build 0)  -->
<!DOCTYPE svg PUBLIC "-//W3C//DTD SVG 1.1//EN" "http://www.w3.org/Graphics/SVG/1.1/DTD/svg11.dtd">
<svg version="1.1" id="Calque_1" xmlns="http://www.w3.org/2000/svg" xmlns:xlink="http://www.w3.org/1999/xlink" x="0px" y="0px"
	 width="111.389px" height="22.897px" viewBox="0 0 111.389 22.897" enable-background="new 0 0 111.389 22.897"
	 xml:space="preserve">
<g>
	<path fill="#FFFFFF" d="M0,18.7V0.805h2.368V18.7H0z"/>
	<path fill="#FFFFFF" d="M14.673,18.7v-1.635c-0.822,1.285-2.031,1.928-3.625,1.928c-1.034,0-1.983-0.285-2.851-0.854
		c-0.866-0.57-1.538-1.365-2.014-2.387c-0.477-1.021-0.714-2.195-0.714-3.522c0-1.294,0.215-2.468,0.647-3.521
		c0.431-1.054,1.078-1.862,1.941-2.423c0.862-0.562,1.827-0.842,2.893-0.842c0.781,0,1.477,0.165,2.087,0.494
		c0.61,0.33,1.106,0.759,1.489,1.288V0.805h2.185V18.7H14.673z M7.727,12.231c0,1.661,0.35,2.901,1.05,3.723
		c0.7,0.822,1.526,1.232,2.478,1.232c0.96,0,1.776-0.393,2.448-1.178c0.671-0.785,1.007-1.983,1.007-3.595
		c0-1.774-0.342-3.076-1.025-3.906s-1.526-1.245-2.527-1.245c-0.977,0-1.792,0.399-2.448,1.196
		C8.055,9.257,7.727,10.514,7.727,12.231z"/>
	<path fill="#FFFFFF" d="M29.041,14.526l2.271,0.28c-0.358,1.327-1.021,2.356-1.99,3.089c-0.969,0.732-2.206,1.098-3.711,1.098
		c-1.896,0-3.4-0.584-4.51-1.752c-1.111-1.167-1.667-2.805-1.667-4.913c0-2.181,0.562-3.874,1.685-5.078
		c1.123-1.204,2.58-1.807,4.37-1.807c1.733,0,3.149,0.59,4.248,1.77c1.099,1.18,1.648,2.84,1.648,4.98
		c0,0.13-0.004,0.326-0.012,0.586h-9.668c0.081,1.424,0.484,2.515,1.208,3.271c0.724,0.757,1.627,1.135,2.71,1.135
		c0.806,0,1.493-0.211,2.063-0.635C28.255,16.13,28.707,15.454,29.041,14.526z M21.826,10.974h7.239
		c-0.098-1.09-0.375-1.908-0.83-2.454c-0.7-0.846-1.607-1.27-2.722-1.27c-1.009,0-1.857,0.338-2.545,1.013
		C22.28,8.939,21.899,9.843,21.826,10.974z"/>
	<path fill="#FFFFFF" d="M42.529,17.102c-0.814,0.692-1.597,1.181-2.35,1.465c-0.752,0.284-1.561,0.427-2.423,0.427
		c-1.424,0-2.519-0.348-3.284-1.043c-0.765-0.695-1.147-1.585-1.147-2.668c0-0.635,0.145-1.215,0.433-1.738
		c0.289-0.525,0.667-0.947,1.136-1.264c0.468-0.317,0.995-0.557,1.581-0.72c0.431-0.114,1.082-0.224,1.953-0.33
		c1.774-0.211,3.08-0.464,3.918-0.757c0.008-0.301,0.012-0.492,0.012-0.574c0-0.895-0.208-1.526-0.623-1.892
		c-0.562-0.496-1.396-0.745-2.502-0.745c-1.034,0-1.796,0.181-2.289,0.543c-0.493,0.362-0.857,1.003-1.093,1.922l-2.148-0.293
		c0.195-0.919,0.517-1.662,0.964-2.228c0.447-0.565,1.094-1.001,1.941-1.306c0.846-0.306,1.827-0.458,2.942-0.458
		c1.106,0,2.006,0.13,2.698,0.391c0.691,0.261,1.2,0.588,1.526,0.982c0.325,0.395,0.553,0.894,0.684,1.496
		c0.073,0.375,0.11,1.05,0.11,2.026v2.93c0,2.043,0.047,3.334,0.141,3.875c0.093,0.542,0.278,1.061,0.555,1.557h-2.295
		C42.741,18.245,42.594,17.712,42.529,17.102z M42.346,12.194c-0.798,0.326-1.994,0.603-3.589,0.83
		c-0.903,0.131-1.542,0.277-1.917,0.439c-0.375,0.163-0.664,0.4-0.867,0.715c-0.204,0.313-0.305,0.66-0.305,1.043
		c0,0.586,0.222,1.074,0.666,1.465c0.443,0.391,1.092,0.586,1.947,0.586c0.846,0,1.599-0.186,2.258-0.555
		c0.659-0.371,1.143-0.877,1.453-1.521c0.236-0.496,0.354-1.229,0.354-2.197V12.194z"/>
	<path fill="#FFFFFF" d="M47.449,12.951l2.234-0.195c0.105,0.896,0.352,1.63,0.739,2.204c0.386,0.572,0.986,1.037,1.8,1.391
		c0.813,0.354,1.729,0.531,2.747,0.531c0.903,0,1.701-0.135,2.393-0.402c0.691-0.27,1.207-0.637,1.544-1.105
		c0.338-0.468,0.507-0.979,0.507-1.531c0-0.563-0.163-1.053-0.488-1.471c-0.326-0.419-0.863-0.771-1.611-1.056
		c-0.48-0.187-1.542-0.478-3.186-0.873c-1.644-0.395-2.795-0.767-3.455-1.117c-0.854-0.447-1.491-1.003-1.91-1.666
		c-0.419-0.664-0.629-1.406-0.629-2.228c0-0.903,0.256-1.748,0.769-2.533c0.513-0.786,1.261-1.381,2.246-1.789
		c0.984-0.407,2.079-0.61,3.284-0.61c1.326,0,2.496,0.213,3.51,0.641c1.013,0.427,1.792,1.056,2.338,1.886
		c0.545,0.83,0.838,1.77,0.879,2.82l-2.271,0.171c-0.121-1.131-0.535-1.985-1.238-2.563c-0.704-0.578-1.744-0.867-3.119-0.867
		c-1.433,0-2.476,0.263-3.131,0.787c-0.655,0.525-0.983,1.158-0.983,1.898c0,0.643,0.232,1.172,0.696,1.587
		c0.456,0.415,1.646,0.84,3.57,1.275c1.925,0.436,3.245,0.816,3.961,1.142c1.042,0.48,1.811,1.088,2.308,1.825
		c0.496,0.736,0.745,1.584,0.745,2.545c0,0.951-0.273,1.85-0.818,2.691s-1.328,1.497-2.35,1.965
		c-1.021,0.469-2.171,0.702-3.449,0.702c-1.62,0-2.977-0.236-4.071-0.708c-1.095-0.472-1.953-1.182-2.576-2.131
		C47.809,15.22,47.481,14.147,47.449,12.951z"/>
	<path fill="#FFFFFF" d="M69.446,16.735l0.317,1.941c-0.619,0.129-1.172,0.195-1.66,0.195c-0.798,0-1.416-0.127-1.855-0.379
		s-0.749-0.584-0.928-0.994c-0.18-0.412-0.269-1.276-0.269-2.595V7.446H63.44V5.737h1.611v-3.21l2.185-1.318v4.529h2.21v1.709h-2.21
		v7.581c0,0.627,0.039,1.029,0.116,1.209c0.077,0.179,0.204,0.321,0.379,0.427c0.175,0.106,0.425,0.159,0.751,0.159
		C68.726,16.821,69.046,16.792,69.446,16.735z"/>
	<path fill="#FFFFFF" d="M85.474,18.7V5.737h1.977v1.965c0.505-0.919,0.971-1.526,1.398-1.819c0.427-0.293,0.896-0.439,1.41-0.439
		c0.74,0,1.492,0.236,2.258,0.708L91.76,8.19c-0.537-0.317-1.074-0.476-1.611-0.476c-0.48,0-0.911,0.145-1.294,0.434
		C88.472,8.437,88.2,8.837,88.037,9.35c-0.244,0.781-0.365,1.636-0.365,2.563V18.7H85.474z"/>
	<path fill="#FFFFFF" d="M93.824,18.7V5.737h1.965v1.819c0.406-0.635,0.947-1.146,1.623-1.532c0.676-0.387,1.445-0.58,2.308-0.58
		c0.96,0,1.747,0.2,2.362,0.598c0.614,0.399,1.047,0.957,1.3,1.672c1.025-1.514,2.36-2.271,4.004-2.271
		c1.286,0,2.274,0.356,2.966,1.068c0.691,0.712,1.038,1.809,1.038,3.29V18.7h-2.185v-8.166c0-0.879-0.072-1.512-0.214-1.898
		c-0.143-0.387-0.401-0.698-0.775-0.934c-0.374-0.236-0.813-0.354-1.318-0.354c-0.911,0-1.669,0.303-2.271,0.909
		c-0.603,0.606-0.903,1.577-0.903,2.912V18.7h-2.197v-8.422c0-0.977-0.179-1.709-0.537-2.197s-0.944-0.732-1.758-0.732
		c-0.618,0-1.19,0.163-1.715,0.488c-0.525,0.326-0.905,0.802-1.142,1.428c-0.236,0.627-0.354,1.53-0.354,2.71V18.7H93.824z"/>
</g>
<g>
	<path fill="#F5E618" d="M79.304,20.358v0.162c0,0.136-0.11,0.246-0.245,0.246H75.78c-0.134,0-0.245-0.11-0.245-0.246v-0.162
		c0-0.137,0.11-0.248,0.245-0.248h3.279C79.195,20.11,79.304,20.222,79.304,20.358z"/>
	<path fill="#F5E618" d="M79.304,19.374v0.164c0,0.135-0.11,0.246-0.245,0.246H75.78c-0.134,0-0.245-0.111-0.245-0.246v-0.164
		c0-0.135,0.11-0.246,0.245-0.246h3.279C79.195,19.128,79.304,19.239,79.304,19.374z"/>
	<path fill="#F5E618" d="M76.191,22.079h2.457c0,0.49-0.654,0.818-1.229,0.818S76.191,22.569,76.191,22.079z"/>
	<path fill="#F5E618" d="M77.419,5.444c-3.268,0-5.923,2.658-5.923,5.927c0,2.036,1.023,3.902,2.743,4.999
		c0.16,0.104,0.281,0.396,0.412,0.705c0.15,0.361,0.318,0.772,0.631,1.131c0.509,0.582,1.303,0.582,2.137,0.582
		c0.982,0,1.664-0.043,2.139-0.588c0.324-0.363,0.5-0.777,0.66-1.145c0.137-0.314,0.264-0.613,0.434-0.721
		c1.686-1.096,2.69-2.949,2.69-4.964C83.342,8.102,80.687,5.444,77.419,5.444z M77.391,17.86c-0.11-1.088-0.306-2.51-0.604-3.604
		c0.255-0.15,0.494-0.315,0.693-0.5c0.15,0.141,0.31,0.277,0.473,0.404c0.068,0.049,0.139,0.096,0.207,0.139
		c-0.115,0.587-0.229,1.343-0.359,2.308c-0.063,0.441-0.124,0.868-0.184,1.25c-0.063,0.002-0.129,0.002-0.197,0.002L77.391,17.86
		L77.391,17.86z M77.212,12.041c0.012-0.024,0.096-0.07,0.289-0.07h0.012c0.093,0,0.205,0.014,0.22,0.08
		c0.034,0.124-0.036,0.375-0.241,0.665C77.269,12.395,77.178,12.141,77.212,12.041z M80.146,15.558
		c-0.402,0.258-0.598,0.703-0.781,1.131c-0.135,0.316-0.279,0.642-0.502,0.898c-0.111,0.125-0.275,0.195-0.535,0.23
		c0.053-0.345,0.103-0.725,0.157-1.112c0.09-0.628,0.208-1.479,0.343-2.179c0.28,0.031,0.533-0.027,0.72-0.122
		c0.322-0.161,0.519-0.462,0.511-0.776c-0.004-0.227-0.108-0.643-0.768-0.944c-0.148-0.068-0.31-0.06-0.451,0.019
		c-0.214,0.116-0.367,0.388-0.506,0.871c-0.137-0.106-0.262-0.214-0.369-0.321c0.379-0.479,0.554-0.986,0.439-1.389
		c-0.104-0.374-0.452-0.579-0.914-0.587c-0.656,0.008-0.867,0.344-0.934,0.545c-0.139,0.413,0.079,0.932,0.461,1.418
		c-0.129,0.115-0.279,0.23-0.451,0.341c-0.184-0.479-0.395-0.825-0.646-0.944c-0.197-0.094-0.406-0.08-0.591,0.046
		c-0.612,0.396-0.646,0.972-0.417,1.336c0.219,0.35,0.681,0.562,1.215,0.481c0.201,0.77,0.406,1.887,0.564,3.34
		c-0.378-0.027-0.576-0.094-0.705-0.242c-0.217-0.245-0.348-0.568-0.477-0.879c-0.181-0.428-0.367-0.869-0.771-1.131
		c-1.449-0.924-2.314-2.5-2.314-4.216c0-2.756,2.244-4.998,4.996-4.998c2.753,0,4.995,2.242,4.995,4.998
		C82.415,13.073,81.566,14.634,80.146,15.558z M78.975,13.838c0.052-0.195,0.101-0.354,0.156-0.452
		c0.175,0.104,0.231,0.208,0.231,0.254c0,0.047-0.049,0.104-0.127,0.142c-0.068,0.034-0.152,0.057-0.256,0.057
		C78.98,13.838,78.98,13.838,78.975,13.838z M75.918,13.825c-0.211,0.004-0.357-0.08-0.415-0.176
		c-0.086-0.138,0.053-0.275,0.152-0.354C75.733,13.374,75.824,13.55,75.918,13.825z"/>
	<path fill="#F5E618" d="M79.304,21.341v0.164c0,0.135-0.11,0.246-0.245,0.246H75.78c-0.134,0-0.245-0.111-0.245-0.246v-0.164
		c0-0.135,0.11-0.246,0.245-0.246h3.279C79.195,21.095,79.304,21.206,79.304,21.341z"/>
</g>
<line fill="none" stroke="#F5E618" stroke-linecap="round" stroke-miterlimit="10" x1="81.025" y1="3.595" x2="82.23" y2="1.901"/>
<line fill="none" stroke="#F5E618" stroke-linecap="round" stroke-miterlimit="10" x1="73.814" y1="3.595" x2="72.671" y2="2.282"/>
<line fill="none" stroke="#F5E618" stroke-linecap="round" stroke-miterlimit="10" x1="77.419" y1="2.264" x2="77.419" y2="0.5"/>
</svg>
