<?xml version="1.0" encoding="utf-8"?>
<!-- Generator: Adobe Illustrator 15.0.0, SVG Export Plug-In . SVG Version: 6.00 Build 0)  -->
<!DOCTYPE svg PUBLIC "-//W3C//DTD SVG 1.1//EN" "http://www.w3.org/Graphics/SVG/1.1/DTD/svg11.dtd">
<svg version="1.1" id="Calque_1" xmlns="http://www.w3.org/2000/svg" xmlns:xlink="http://www.w3.org/1999/xlink" x="0px" y="0px"
	 width="107.705px" height="34.508px" viewBox="0 0 107.705 34.508" enable-background="new 0 0 107.705 34.508"
	 xml:space="preserve">
<path fill="#152661" d="M107.49,31.351c-0.292-0.324-0.825-0.315-1.108-0.03c-0.536,0.497-1.184,0.865-1.927,1.094
	c-0.746,0.231-1.505,0.3-2.247,0.204c-0.578-0.078-1.933-0.262-2.847-1.649c-0.421-0.639-0.789-2.084-0.905-2.98
	c1.414-0.522,4.422-3.084,4.604-5.823c0.063-1.078-0.033-1.905-0.295-2.537c-0.338-0.75-0.896-1.146-1.614-1.146
	c-0.566,0-1.142,0.267-1.715,0.796c-0.502,0.484-0.945,1.119-1.318,1.887c-0.653,1.354-1.052,2.916-1.186,4.645
	c-0.03,0.399-0.042,0.812-0.035,1.252c-1.001,0.239-2.035-0.062-3.101-0.904c0.033-1.735-0.06-3.457-0.274-5.088l-0.002-0.122
	c-0.021-0.171-0.055-0.341-0.092-0.488l-0.032-0.229c-0.027-0.132-0.091-0.247-0.185-0.338c-0.192-0.514-0.455-0.906-0.788-1.174
	c-0.521-0.379-1.071-0.42-1.606-0.102c-0.411,0.253-0.741,0.735-0.979,1.431c-0.339,0.956-0.334,2.002,0.013,3.109
	c0.341,1.087,0.899,2.099,1.661,3.008c0.21,0.247,0.418,0.468,0.635,0.672c-0.003,0.179-0.014,0.357-0.029,0.538
	c-0.119,1.444-0.356,2.622-0.707,3.498c-0.374,0.938-0.863,1.521-1.459,1.737c-0.386,0.151-0.76,0.089-1.146-0.179
	c-0.433-0.325-0.788-1.051-1.054-2.152c-0.217-1.011-0.367-2.321-0.446-3.893c-0.04-0.99-0.03-2.331,0.03-4.096l0.12-2.856
	c0-0.211-0.09-0.405-0.261-0.562c-0.332-0.309-0.789-0.309-1.123,0c-0.172,0.157-0.263,0.352-0.263,0.562
	c0,0.178-0.006,0.398-0.016,0.656c-0.01,0.262-0.025,0.61-0.045,1.042c-0.02,0.438-0.029,0.811-0.029,1.107
	c-0.06,1.604-0.07,3.015-0.031,4.194c0.062,1.688,0.227,3.1,0.489,4.191c0.081,0.366,0.184,0.715,0.32,1.086
	c-0.229,0.315-0.519,0.571-0.868,0.766c-0.333,0.2-0.62,0.254-0.872,0.162c-1.004-0.367-1.619-1.62-1.829-3.72
	c-0.039-0.512-0.059-1.097-0.059-1.738c-0.008-2.994-0.056-3.998-0.153-4.354c-0.209-1.89-0.858-3.174-1.928-3.818
	c-0.74-0.457-1.483-0.597-2.255-0.39c-0.651,0.195-1.251,0.631-1.784,1.294c-0.888,1.119-1.534,2.745-1.921,4.833
	c-0.385,2.059-0.426,3.963-0.121,5.658c0.089,0.485,0.21,0.944,0.361,1.368c-0.503,0.408-1.05,0.7-1.667,0.89
	c-0.747,0.232-1.505,0.302-2.247,0.204c-0.577-0.077-1.93-0.259-2.848-1.649c-0.421-0.638-0.788-2.084-0.904-2.98
	c1.414-0.522,4.422-3.084,4.604-5.822c0.062-1.06-0.036-1.911-0.296-2.538c-0.338-0.75-0.896-1.146-1.615-1.146
	c-0.564,0-1.14,0.267-1.713,0.796c-0.504,0.486-0.947,1.122-1.317,1.888c-0.656,1.354-1.056,2.917-1.187,4.643
	c-0.023,0.297-0.032,0.587-0.036,0.874c-0.924,0.157-1.836-0.138-2.735-0.863c0.054-2.348-0.05-4.269-0.311-5.714
	c-0.024-0.125-0.073-0.233-0.146-0.322c-0.246-0.707-0.654-1.18-1.207-1.402c-0.505-0.218-0.995-0.153-1.433,0.188
	c-0.366,0.298-0.619,0.772-0.752,1.417c-0.188,0.987-0.115,2.031,0.217,3.104c0.329,1.063,0.853,2.023,1.546,2.841
	c0.146,0.203,0.311,0.392,0.487,0.562l-0.052,0.757c-0.117,1.583-0.316,2.826-0.593,3.695c-0.291,0.898-0.649,1.414-1.057,1.528
	c-0.49,0.123-0.868,0.009-1.169-0.342c-0.334-0.392-0.6-1.047-0.791-1.947c-0.177-0.854-0.297-1.94-0.361-3.169
	c0.024-0.122,0.035-0.22,0.035-0.291c0-0.12-0.013-0.232-0.03-0.273c0-0.143-0.005-0.344-0.015-0.601
	c-0.011-0.246-0.016-0.41-0.016-0.488c0-0.23-0.085-0.431-0.248-0.579c-0.324-0.294-0.808-0.284-1.092,0.032
	c-0.144,0.158-0.217,0.342-0.217,0.547c0,0.062,0.005,0.276,0.016,0.642c0.01,0.36,0.015,0.672,0.016,0.912
	c-0.141,1.801-0.301,3.059-0.477,3.74c-0.187,0.718-0.429,1.23-0.723,1.527c-0.22,0.233-0.51,0.289-0.832,0.204
	c-0.08-0.024-0.25-0.125-0.496-0.534c-0.168-0.26-0.322-0.606-0.458-1.036c-0.272-0.777-0.461-1.704-0.56-2.754
	c-0.1-1.052-0.139-1.928-0.119-2.604c0.018-0.68,0.067-1.712,0.149-3.153c0.081-1.426,0.131-2.359,0.151-2.814
	c0-0.219-0.064-0.409-0.193-0.57c-0.274-0.327-0.794-0.332-1.116-0.039c-0.162,0.148-0.247,0.338-0.247,0.536
	c-0.02,0.382-0.075,1.299-0.166,2.751c-0.092,1.48-0.141,2.549-0.151,3.266c-0.01,0.727,0.041,1.673,0.152,2.813
	c0.111,1.148,0.323,2.19,0.632,3.103l0.063,0.163c-0.226,0.297-0.502,0.536-0.831,0.718c-0.333,0.2-0.618,0.255-0.872,0.162
	c-1.004-0.367-1.62-1.62-1.829-3.72c-0.039-0.517-0.059-1.101-0.059-1.736l0.003-0.751c0.003-0.031,0.106-2.794-0.18-3.602
	l0.025-0.003c-0.209-1.891-0.858-3.175-1.927-3.818c-0.741-0.457-1.485-0.597-2.256-0.39c-0.649,0.195-1.249,0.63-1.784,1.294
	c-0.887,1.118-1.533,2.744-1.92,4.833c-0.386,2.057-0.426,3.96-0.122,5.658c0.09,0.49,0.211,0.949,0.36,1.368
	c-0.496,0.403-1.055,0.702-1.665,0.89c-0.748,0.232-1.508,0.302-2.248,0.204c-0.916-0.124-1.674-0.454-2.258-0.981
	c1.882-3.559,2.928-6.743,3.109-9.471c0.062-1.06-0.036-1.911-0.294-2.539c-0.345-0.76-0.888-1.145-1.616-1.145
	c-0.565,0-1.141,0.267-1.713,0.796c-0.501,0.483-0.945,1.118-1.318,1.888c-0.654,1.354-1.054,2.916-1.186,4.643
	c-0.133,1.727,0.038,3.343,0.511,4.809c0.131,0.379,0.3,0.734,0.514,1.081c-0.684,0.597-1.303,0.899-1.84,0.899
	c-0.053,0-0.106-0.003-0.153-0.009c-0.531-0.071-1.043-0.436-1.522-1.083c-0.473-0.642-0.889-1.488-1.236-2.516
	c0.153-0.483,0.307-0.995,0.46-1.536c0.707-2.551,1.166-5.398,1.367-8.476c0.001-0.029,0.012-0.155,0.03-0.378
	c0.019-0.239,0.044-0.488,0.074-0.748c0.032-0.268,0.052-0.597,0.062-0.976c0.01-0.366,0.005-0.715-0.014-1.026
	c-0.022-0.893-0.139-1.549-0.351-1.995c-0.162-0.395-0.391-0.68-0.676-0.846c-0.362-0.219-0.778-0.256-1.2-0.115
	c-0.507,0.162-0.921,0.549-1.23,1.145c-0.213,0.386-0.384,0.899-0.507,1.515c-0.103,0.415-0.186,0.904-0.246,1.447
	c-0.021,0.145-0.042,0.32-0.061,0.525c-0.022,0.215-0.033,0.354-0.031,0.389c-0.091,0.78-0.154,1.58-0.188,2.387
	c-0.132-0.184-0.266-0.349-0.401-0.493c-0.766-0.878-1.626-1.201-2.517-0.954c-0.725,0.197-1.394,0.784-1.99,1.746
	c-0.474,0.788-0.869,1.777-1.173,2.938c-0.688,2.512-0.804,4.837-0.331,6.961c-0.138,0.742-1.028,1.51-1.764,1.51
	c-0.74,0-1.342-0.597-1.342-1.331l0.005-12.745l1.473-0.006v-0.02c1.3-0.166,2.286-1.245,2.286-2.555
	c0-1.421-1.18-2.576-2.631-2.576c-1.452,0-2.634,1.155-2.634,2.576v1.071h-0.89v-1.071c0-1.421-1.181-2.576-2.632-2.576
	c-1.452,0-2.634,1.155-2.634,2.576c0,1.388,1.11,2.519,2.537,2.574l1.224,0.005l0.017,12.672l0.004,0.103
	c-0.06,0.73-0.711,1.303-1.481,1.303c-0.819,0-1.486-0.635-1.486-1.414c0-1.908-0.419-5.709-3.226-9.729l-0.287-0.412
	c-2.571-3.675-3.347-4.783-3.347-7.828c0-6.268,5.274-11.367,11.757-11.367c5.592,0,10.441,3.842,11.53,9.137
	c0.073,0.35,0.381,0.604,0.733,0.604c0.056,0,0.111-0.007,0.157-0.018c0.197-0.041,0.366-0.156,0.477-0.325s0.149-0.37,0.108-0.566
	C25.035,4.348,19.566,0,13.263,0C5.95,0,0,5.776,0,12.875c0,3.519,0.985,4.927,3.619,8.694l0.288,0.411
	c2.569,3.68,2.953,7.133,2.953,8.863c0,1.611,1.342,2.923,2.992,2.923s2.991-1.312,2.991-2.924l-0.025-12.661h0.89v12.543
	l-0.005,0.186c0,1.575,1.278,2.856,2.848,2.856c0.863,0,1.79-0.467,2.45-1.214c0.208,0.359,0.444,0.669,0.704,0.921
	c0.777,0.777,1.742,1.115,2.918,1.01c1.24-0.128,2.338-0.919,3.266-2.354c0.16-0.255,0.317-0.529,0.468-0.819
	c0.256,0.535,0.538,0.999,0.84,1.381c0.764,1.021,1.644,1.595,2.615,1.702c1.042,0.123,2.111-0.301,3.194-1.251
	c0.079,0.071,0.161,0.141,0.249,0.207c0.815,0.588,1.748,0.948,2.77,1.073c0.977,0.127,1.966,0.043,2.94-0.25
	c0.712-0.213,1.362-0.538,1.934-0.967c0.38,0.5,0.84,0.863,1.373,1.081c1.003,0.396,1.957,0.261,2.812-0.4
	c0.61-0.485,1.162-1.248,1.645-2.279c0.045-0.109,0.09-0.224,0.135-0.341c0.488,1.484,1.308,2.448,2.441,2.869
	c0.691,0.267,1.446,0.169,2.203-0.286c0.264-0.147,0.514-0.334,0.774-0.579c0.36,0.469,0.756,0.762,1.176,0.871
	c0.954,0.289,1.783,0.076,2.42-0.606c0.336-0.337,0.613-0.797,0.829-1.374c0.201,0.511,0.449,0.937,0.741,1.272
	c0.725,0.815,1.662,1.087,2.723,0.802c0.947-0.242,1.676-1.09,2.165-2.521c0.343-0.988,0.573-2.262,0.687-3.801
	c0.931,0.515,1.895,0.711,2.889,0.582c0.084,0.85,0.244,1.645,0.479,2.371c0.355,1.029,0.953,1.864,1.779,2.482
	c0.815,0.587,1.748,0.948,2.771,1.073c0.979,0.127,1.967,0.042,2.94-0.25c0.712-0.214,1.361-0.538,1.933-0.967
	c0.381,0.501,0.842,0.863,1.374,1.081c0.375,0.147,0.746,0.222,1.104,0.222c0.599,0,1.173-0.208,1.708-0.622
	c0.618-0.491,1.154-1.233,1.646-2.279c0.045-0.111,0.09-0.225,0.134-0.341c0.487,1.484,1.308,2.448,2.44,2.869
	c0.691,0.267,1.444,0.17,2.204-0.287c0.301-0.167,0.587-0.391,0.871-0.677c0.175,0.219,0.345,0.385,0.522,0.512
	c0.372,0.264,0.802,0.44,1.278,0.526c0.496,0.088,0.981,0.057,1.459-0.102c1.032-0.39,1.822-1.284,2.344-2.649
	c0.394-0.917,0.662-2.079,0.799-3.458c1.104,0.633,2.212,0.852,3.308,0.65c0.091,0.687,0.238,1.347,0.439,1.967
	c0.357,1.031,0.955,1.865,1.78,2.482c0.814,0.588,1.747,0.949,2.771,1.073c0.294,0.038,0.591,0.057,0.885,0.057
	c0.001,0,0.001,0,0.001,0c0.681,0,1.372-0.103,2.054-0.307c0.982-0.294,1.829-0.783,2.503-1.439c0.176-0.146,0.27-0.344,0.27-0.57
	C107.705,31.698,107.634,31.51,107.49,31.351z M98.502,25.94c0.118-1.529,0.466-2.899,1.033-4.076
	c0.286-0.616,0.613-1.099,0.964-1.431c0.356-0.314,0.56-0.362,0.649-0.363c0.008,0.003,0.073,0.032,0.165,0.216
	c0.163,0.365,0.217,0.967,0.162,1.766c-0.349,2.198-1.996,3.862-2.957,4.229C98.506,26.122,98.499,25.983,98.502,25.94z
	 M92.35,24.721c-0.486-0.61-0.842-1.252-1.06-1.914c-0.271-0.823-0.277-1.56-0.019-2.19c0.108-0.273,0.196-0.434,0.26-0.526
	c0.173,0.146,0.311,0.395,0.408,0.727C92.18,21.986,92.316,23.297,92.35,24.721z M79.982,20.344c0.648,0.398,1.046,1.383,1.181,2.93
	c0.009,0.092,0.028,0.208,0.051,0.346c0.027,0.166,0.06,0.366,0.085,0.594c0.026,0.249,0.013,1.039-0.001,1.735
	c-0.007,0.415-0.015,0.826-0.012,1.104c-0.237,1.506-0.606,2.817-1.097,3.899c-0.365,0.789-0.759,1.36-1.159,1.689
	c-0.395,0.292-0.779,0.346-1.239,0.151c-0.736-0.289-1.242-1.193-1.505-2.691c-0.295-1.517-0.265-3.216,0.09-5.051
	c0.353-1.827,0.895-3.229,1.607-4.156c0.328-0.4,0.659-0.647,0.987-0.733c0.092-0.023,0.186-0.036,0.28-0.036
	C79.483,20.125,79.731,20.2,79.982,20.344z M70.094,20.319c0.006,0.002,0.07,0.029,0.165,0.217c0.163,0.362,0.218,0.964,0.163,1.766
	c-0.35,2.197-1.997,3.861-2.958,4.229c-0.013-0.159-0.021-0.298-0.018-0.341c0.118-1.527,0.466-2.896,1.035-4.075
	c0.284-0.612,0.611-1.097,0.963-1.433C69.802,20.367,70.005,20.319,70.094,20.319z M61.678,24.161
	c-0.265-0.468-0.468-0.957-0.606-1.462c-0.21-0.769-0.249-1.482-0.114-2.131c0.035-0.199,0.075-0.323,0.11-0.401
	c0.044,0.044,0.096,0.108,0.154,0.202c0.1,0.158,0.158,0.35,0.173,0.55c0,0.09,0.023,0.178,0.069,0.263
	C61.571,22.056,61.643,23.055,61.678,24.161z M45.069,20.344c0.649,0.398,1.046,1.383,1.179,2.93
	c0.019,0.194,0.032,0.408,0.032,0.408c0.001,0.029,0.088,2.539,0.091,3.371c-0.237,1.505-0.606,2.817-1.097,3.899
	c-0.364,0.787-0.757,1.358-1.159,1.689c-0.394,0.293-0.781,0.346-1.239,0.151c-0.735-0.289-1.241-1.193-1.504-2.691
	c-0.295-1.512-0.265-3.211,0.09-5.051c0.352-1.827,0.895-3.228,1.607-4.156c0.329-0.401,0.66-0.647,0.987-0.733
	c0.092-0.023,0.186-0.036,0.28-0.036C44.568,20.125,44.817,20.2,45.069,20.344z M32.533,26.189c0.119-1.529,0.466-2.899,1.034-4.075
	c0.285-0.613,0.611-1.098,0.963-1.432c0.341-0.299,0.542-0.362,0.65-0.363c0.007,0.003,0.073,0.031,0.166,0.217
	c0.163,0.363,0.217,0.965,0.16,1.788c-0.151,2.333-1.002,5.028-2.53,8.02c0,0,0,0,0-0.001C32.563,29.107,32.415,27.71,32.533,26.189
	z M27.644,17.096c-0.01,0.339-0.025,0.627-0.045,0.866c-0.02,0.239-0.044,0.483-0.074,0.731c-0.033,0.27-0.047,0.427-0.046,0.452
	c-0.167,2.431-0.496,4.713-0.981,6.804c-0.32-2.54-0.32-5.097,0.001-7.634c0-0.038,0.009-0.157,0.029-0.355
	c0.02-0.207,0.039-0.38,0.059-0.523c0.061-0.504,0.129-0.933,0.208-1.312c0.096-0.457,0.22-0.832,0.369-1.112
	c0.097-0.182,0.177-0.276,0.231-0.324c0.004,0.01,0.008,0.021,0.013,0.035c0.128,0.292,0.202,0.77,0.222,1.43
	C27.648,16.452,27.653,16.77,27.644,17.096z M20.812,32.365c-0.428-0.431-0.75-1.094-0.958-1.969
	c-0.412-1.827-0.311-3.914,0.298-6.205c0.275-1.021,0.621-1.864,1.03-2.51c0.359-0.595,0.714-0.954,1.025-1.037
	c0.047-0.013,0.095-0.019,0.142-0.019c0.241,0,0.505,0.163,0.787,0.488c0.556,0.617,1.094,1.7,1.601,3.22
	c0.005,0.027,0.014,0.058,0.03,0.088c0.041,0.714,0.111,1.44,0.209,2.16c0.119,0.875,0.316,1.757,0.586,2.622
	c-0.305,0.811-0.642,1.512-1,2.079c-0.657,0.998-1.367,1.54-2.112,1.613C21.787,32.971,21.243,32.796,20.812,32.365z M16.341,14.534
	c0.62,0,1.125,0.479,1.125,1.067s-0.505,1.067-1.125,1.067l-1.127,0.003v-1.07C15.213,15.013,15.719,14.534,16.341,14.534z
	 M10.185,14.534c0.621,0,1.126,0.479,1.126,1.067v1.071h-0.876l-0.25-0.004c-0.622,0-1.128-0.479-1.128-1.067
	S9.563,14.534,10.185,14.534z"/>
</svg>
