<?xml version="1.0" encoding="utf-8"?>
<!-- Generator: Adobe Illustrator 15.0.0, SVG Export Plug-In . SVG Version: 6.00 Build 0)  -->
<!DOCTYPE svg PUBLIC "-//W3C//DTD SVG 1.1//EN" "http://www.w3.org/Graphics/SVG/1.1/DTD/svg11.dtd">
<svg version="1.1" id="Calque_1" xmlns="http://www.w3.org/2000/svg" xmlns:xlink="http://www.w3.org/1999/xlink" x="0px" y="0px"
	 width="91.564px" height="158.319px" viewBox="0 0 91.564 158.319" enable-background="new 0 0 91.564 158.319"
	 xml:space="preserve">
<path fill="#2D7ABA" d="M34.955,57.822h4.84v-4.584c0-2.516-2.17-4.563-4.84-4.563c-2.675,0-4.849,2.048-4.849,4.563
	c0,2.518,2.174,4.568,4.849,4.568V57.822z M51.764,57.822l4.849-0.016c2.668,0,4.838-2.051,4.838-4.568
	c0-2.516-2.17-4.563-4.838-4.563c-2.675,0-4.849,2.048-4.849,4.563V57.822z M63.646,158.319H31.821c-4.075,0-7.394-3.194-7.394-7.12
	c0-3.924,3.318-7.117,7.394-7.117h31.824c2.122,0,3.851-1.625,3.851-3.623c0-1.993-1.729-3.616-3.851-3.616H31.821
	c-4.075,0-7.394-3.194-7.394-7.12c0-3.925,3.318-7.115,7.394-7.115h32.906c2.125,0,3.853-1.623,3.853-3.619
	c0-1.997-1.728-3.621-3.853-3.621h-7.379c-5.039,0-9.142-4.054-9.142-9.037l0.018-0.617V61.32h-4.891l0.092,44.776
	c0,5.11-4.326,9.271-9.642,9.271c-5.323,0-9.649-4.16-9.649-9.271c0-6.104-1.373-18.276-10.549-31.236l-1.008-1.421
	C3.426,60.543,0,55.718,0,43.784C0,19.643,20.541,0,45.784,0s45.78,19.643,45.78,43.784c0,0.967-0.791,1.75-1.77,1.75
	s-1.77-0.783-1.77-1.75c0-22.213-18.95-40.285-42.241-40.285c-23.295,0-42.245,18.072-42.245,40.285
	c0,10.828,2.766,14.729,11.935,27.646l1.009,1.424c9.736,13.745,11.191,26.727,11.191,33.243c0,3.182,2.74,5.771,6.11,5.771
	c3.204,0,5.837-2.345,6.087-5.315l-0.011-0.451L39.795,61.32l-5.178-0.022c-4.469-0.17-8.05-3.721-8.05-8.06
	c0-4.447,3.765-8.063,8.388-8.063c4.621,0,8.379,3.615,8.379,8.063v4.584h4.891v-4.584c0-4.447,3.763-8.063,8.388-8.063
	c4.621,0,8.377,3.615,8.377,8.063c0,4.341-3.577,7.891-8.042,8.06v0.022h-5.184l-0.018,45.063c0,3.001,2.512,5.484,5.603,5.484
	h7.379c4.075,0,7.394,3.195,7.394,7.12c0,3.924-3.318,7.117-7.394,7.117H31.821c-2.126,0-3.854,1.623-3.854,3.617
	c0,1.997,1.729,3.621,3.854,3.621h31.824c4.075,0,7.389,3.191,7.389,7.115c0,3.928-3.313,7.122-7.389,7.122H31.821
	c-2.126,0-3.854,1.623-3.854,3.618c0,1.997,1.729,3.621,3.854,3.621h31.824c0.978,0,1.771,0.783,1.771,1.75
	S64.623,158.319,63.646,158.319"/>
<rect fill="none" width="91.564" height="158.319"/>
</svg>
