<?xml version="1.0" encoding="utf-8"?>
<!-- Generator: Adobe Illustrator 15.0.0, SVG Export Plug-In . SVG Version: 6.00 Build 0)  -->
<!DOCTYPE svg PUBLIC "-//W3C//DTD SVG 1.1//EN" "http://www.w3.org/Graphics/SVG/1.1/DTD/svg11.dtd">
<svg version="1.1" id="Calque_1" xmlns="http://www.w3.org/2000/svg" xmlns:xlink="http://www.w3.org/1999/xlink" x="0px" y="0px"
	 width="16.167px" height="27.648px" viewBox="0 0 16.167 27.648" enable-background="new 0 0 16.167 27.648" xml:space="preserve">
<g>
	<path fill="#152661" d="M8.084,0C3.626,0,0,3.51,0,7.825c0,2.14,0.601,2.996,2.205,5.282l0.174,0.249
		c1.559,2.227,1.79,4.313,1.79,5.36c0,0.988,0.827,1.793,1.842,1.793c1.013,0,1.839-0.805,1.839-1.793l-0.017-7.653h0.5v7.581
		l-0.004,0.113c0,0.966,0.786,1.752,1.753,1.752c0.931,0,1.808-0.812,1.916-1.793c0-1.046,0.231-3.133,1.79-5.36l0.175-0.249
		c1.604-2.286,2.204-3.142,2.204-5.282C16.167,3.51,12.541,0,8.084,0z M10.082,19.553c-0.439,0-0.795-0.354-0.795-0.787l0.002-7.704
		l0.896-0.004v-0.015c0.792-0.108,1.391-0.767,1.391-1.566c0-0.872-0.728-1.582-1.621-1.582S8.333,8.605,8.333,9.478v0.628h-0.5
		V9.478c0-0.872-0.728-1.582-1.62-1.582c-0.895,0-1.622,0.709-1.622,1.582c0,0.853,0.686,1.547,1.563,1.581l0.724,0.003l0.012,7.658
		l0.002,0.063c-0.037,0.432-0.423,0.771-0.88,0.771c-0.486,0-0.883-0.376-0.883-0.837c0-1.158-0.256-3.467-1.966-5.91l-0.175-0.248
		c-1.56-2.225-2.031-2.895-2.031-4.733c0-3.788,3.197-6.869,7.128-6.869c3.929,0,7.125,3.082,7.125,6.869
		c0,1.838-0.471,2.509-2.029,4.733l-0.174,0.25c-1.714,2.445-1.966,4.729-1.963,5.854C10.991,19.111,10.516,19.553,10.082,19.553z
		 M9.954,8.852c0.367,0,0.665,0.281,0.665,0.626c0,0.346-0.298,0.626-0.666,0.626l-0.664,0.001V9.478
		C9.289,9.132,9.587,8.852,9.954,8.852z M6.876,10.106H6.387l-0.174-0.002c-0.367,0-0.665-0.281-0.665-0.626
		c0-0.345,0.298-0.626,0.665-0.626c0.366,0,0.663,0.281,0.663,0.626V10.106z"/>
	<path fill="#152661" d="M10.574,22.938H5.593c-0.236,0-0.429-0.207-0.429-0.462c0-0.254,0.192-0.459,0.429-0.459h5.496
		c0.247,0,0.449-0.214,0.449-0.477c0-0.266-0.202-0.479-0.449-0.479H5.593c-0.732,0-1.329,0.636-1.329,1.415
		c0,0.782,0.597,1.417,1.329,1.417h4.981c0.237,0,0.431,0.207,0.431,0.46c0,0.255-0.193,0.462-0.431,0.462H5.593
		c-0.732,0-1.329,0.635-1.329,1.416s0.597,1.417,1.329,1.417h4.981c0.248,0,0.45-0.215,0.45-0.479c0-0.262-0.202-0.478-0.45-0.478
		H5.593c-0.236,0-0.429-0.206-0.429-0.46s0.192-0.461,0.429-0.461h4.981c0.732,0,1.329-0.635,1.329-1.417
		C11.903,23.574,11.307,22.938,10.574,22.938z"/>
</g>
</svg>
